<svg xmlns="http://www.w3.org/2000/svg" version="1.1" xmlns:xlink="http://www.w3.org/1999/xlink" xmlns:svgjs="http://svgjs.dev/svgjs" width="1500" height="579" viewBox="0 0 1500 579"><g transform="matrix(1,0,0,1,-0.9084522071641459,-1.4912755814480079)"><svg viewBox="0 0 396 153" data-background-color="#f3e8e0" preserveAspectRatio="xMidYMid meet" height="579" width="1500" xmlns="http://www.w3.org/2000/svg" xmlns:xlink="http://www.w3.org/1999/xlink"><g id="tight-bounds" transform="matrix(1,0,0,1,0.24008861730862918,0.39438011281930585)"><svg viewBox="0 0 395.52 152.2115522464872" height="152.2115522464872" width="395.52"><g><svg viewBox="0 0 395.52 152.2115522464872" height="152.2115522464872" width="395.52"><g><svg viewBox="0 0 395.52 152.2115522464872" height="152.2115522464872" width="395.52"><g id="textblocktransform"><svg viewBox="0 0 395.52 152.2115522464872" height="152.2115522464872" width="395.52" id="textblock"><g><svg viewBox="0 0 395.52 125.05702146661557" height="125.05702146661557" width="395.52"><path d="M394.594 26.822C392.735 13.841 387.435 10.233 387.435 10.233 371.165-3.138 350.86-0.256 332.619 1.665 300.414 1.743 268.339 4.599 236.208 6.131 168.767 6.364 100.749 2.522 33.643 11.998 27.339 14.906-6.54 12.569 1.121 28.484 3.129 35.104 10.456 42.451 10.232 48.526 11.236 49.591 12.631 47.15 13.226 48.682 15.309 52.81 18.711 50.863 21.501 53.303 17.614 59.82 20.403 65.246 23.062 70.931 18.377 72.411 12.371 71.71 9.675 76.617 9.396 80.174 7.89 79.499 6.235 79.343 5.026 79.239 2.59 79.629 2.999 80.745 4.394 84.561-1.594 86.768 2.162 90.507-0.422 94.557 3.948 98.061 3.353 102.449 3.278 103.332 3.687 104.085 4.338 104.292 7.22 105.409 3.018 107.589 3.464 109.952 33.029 126.1 65.104 114.937 95.394 122.362 103.259 117.169 97.346 124.205 100.489 123.114 102.943 121.842 104.728 127.113 107.499 124.127 107.927 123.27 107.276 121.245 108.8 121.635 109.6 121.842 110.307 121.79 110.418 120.596 110.586 118.805 109.117 119.921 108.726 118.987 112.947 114.262 111.906 125.503 115.866 125.036 115.68 123.66 114.528 121.687 116.889 121.946 119.232 119.973 119.306 118.338 121.389 122.777 121.463 123.738 121.835 124.413 122.43 124.88 128.938 120.051 135.409 126.593 142.233 124.413 146.417 122.024 150.433 125.711 154.672 124.802 156.16 124.075 157.666 122.777 159.098 124.958 176.632 125.425 195.319 123.478 211.943 125.036 256.364 122.128 303.836 126.23 350.674 122.388 361.719 120.908 373.192 118.805 383.958 117.117 383.958 117.117 392.679 112.496 392.679 91.727S394.538 73.553 394.817 57.016C395.096 40.478 396.398 39.803 394.538 26.822Z" opacity="1" fill="#d8aa92" data-fill-palette-color="tertiary"></path><g transform="matrix(1,0,0,1,55.76832,26.068561146666667)"><svg width="283.98335999999995" viewBox="-0.15 -39.6 182.63 46.9" height="72.91989917328223" data-palette-color="#6a6363"><path d="M21.15-18.15L21.15-18.15Q21.15-21.35 17.8-21.35L17.8-21.35Q17.4-21.35 16.93-21.3 16.45-21.25 16.32-21.43 16.2-21.6 16.4-21.8L16.4-21.8Q16.85-22.4 19.38-22.4 21.9-22.4 22.7-20.2L22.7-20.2Q23.05-19.35 23.05-18.4L23.05-18.4Q23.05-16.25 21.45-13.5L21.45-13.5Q18.75-9 14-7.1L14-7.1Q11.55-6.1 8.58-6.1 5.6-6.1 3.18-8.13 0.75-10.15 0-13.85L0-13.85Q-0.15-14.8-0.15-15.9L-0.15-15.9Q-0.15-18.9 1.45-22.88 3.05-26.85 6.8-30.5L6.8-30.5Q13.9-37.5 21.8-39.15L21.8-39.15Q24-39.6 25.65-39.6 27.3-39.6 28.45-39.45L28.45-39.45Q31.55-39 33.3-36.5L33.3-36.5Q34.7-34.55 34.7-31.55L34.7-31.55Q34.7-28.85 34.1-27.03 33.5-25.2 33.3-24.63 33.1-24.05 32.58-22.85 32.05-21.65 31.9-21.3 31.75-20.95 31.1-19.5L31.1-19.5Q29-14.95 29.1-14.9L29.1-14.9 30.65-17.4Q33.7-22.1 37.25-26.4L37.25-26.4Q43.85-34.4 49.1-36.8L49.1-36.8Q52.05-38.2 54.25-38.2 56.45-38.2 57.93-37.13 59.4-36.05 59.4-33.45 59.4-30.85 57.75-27.13 56.1-23.4 52.93-17.6 49.75-11.8 47.55-7.05 45.35-2.3 45.35 1.4L45.35 1.4Q45.35 2.7 45.7 3.75L45.7 3.75Q46.4 6.05 48.4 6.05L48.4 6.05Q49.5 6.05 50.68 5.5 51.85 4.95 52.45 4.95 53.05 4.95 53.05 5.6 53.05 6.25 52.1 6.78 51.15 7.3 50.55 7.3L50.55 7.3Q42.55 7.3 42.55 0.35L42.55 0.35Q42.55-2.2 43.43-4.8 44.3-7.4 49.65-18.65 55-29.9 55.45-32.85L55.45-32.85Q55.55-33.3 55.55-33.7L55.55-33.7Q55.55-35.8 53.1-35.8L53.1-35.8Q51.45-35.8 49.35-34.7L49.35-34.7Q41.5-30.95 34.4-20.35L34.4-20.35Q30.2-14.1 24.85-2.6L24.85-2.6Q22.9 1.6 22.8 1.8L22.8 1.8Q22.1 3.25 20 3.25L20 3.25Q18.75 3.25 18.65 2.45L18.65 2.45Q18.6 2.3 18.65 2.1L18.65 2.1Q21.05-1.45 25.38-11.03 29.7-20.6 31.3-27.7L31.3-27.7Q31.8-30.05 31.8-31.88 31.8-33.7 31.3-35L31.3-35Q30.25-37.65 27.75-38.05L27.75-38.05Q27-38.15 25.65-38.15 24.3-38.15 21.63-37.38 18.95-36.6 15.6-34.5L15.6-34.5Q8.05-29.8 4.65-22.25L4.65-22.25Q2.8-18.15 2.8-14.7L2.8-14.7Q2.8-12.95 3.25-11.4L3.25-11.4Q4.9-7.25 9.05-7.05L9.05-7.05Q14.2-7.05 18.05-11.35L18.05-11.35Q21.15-14.8 21.15-18.15ZM53.05-2.9L53.05-2.9Q53.05-5.05 54.9-8.1L54.9-8.1Q54.1-8.1 54.45-8.9L54.45-8.9 55.35-10.65Q57.05-13.9 58.15-16.15L58.15-16.15Q58.65-17.2 60.1-17.2L60.1-17.2 63.15-17.2Q61.35-15.9 59.52-12.18 57.7-8.45 56.7-6.33 55.7-4.2 55.7-3.1 55.7-2 56.07-1.55 56.45-1.1 57.1-1.1L57.1-1.1Q58.05-1.1 59.75-3.1L59.75-3.1Q62.4-6.2 67.2-16.15L67.2-16.15Q67.75-17.2 69.15-17.2L69.15-17.2 71.85-17.2Q70.75-16.35 70.12-15.45 69.5-14.55 68.4-12.25L68.4-12.25Q65.4-6.25 65.05-4.3L65.05-4.3Q64.9-3.6 64.9-3L64.9-3Q64.9-1.4 66-1.3L66-1.3Q68.7-1.3 72.65-9.65L72.65-9.65Q72.95-10.35 73.25-10.2 73.55-10.05 73.55-9.8 73.55-9.55 73.1-8.65 72.65-7.75 72.22-6.9 71.8-6.05 70.92-4.58 70.05-3.1 69.3-2.25L69.3-2.25Q67.35-0.05 65.47-0.05 63.6-0.05 62.9-1.7L62.9-1.7Q62.6-2.45 62.6-3.6 62.6-4.75 63.1-6.45L63.1-6.45Q59.45-0.05 56.35-0.05L56.35-0.05Q53.65-0.05 53.2-2.3L53.2-2.3Q53.05-2.55 53.05-2.9ZM71.4-4L71.4-4Q71.4-8.15 75.4-17.9L75.4-17.9 72.8-17.9Q72.55-17.9 72.47-18.18 72.4-18.45 72.52-18.73 72.65-19 72.9-19L72.9-19 75.9-19Q77.7-22.95 79.25-25.6 80.8-28.25 82.1-29.18 83.4-30.1 83.97-30.1 84.55-30.1 84.8-30L84.8-30Q85.95-29.45 85.95-27.73 85.95-26 84.8-23.55 83.65-21.1 82.55-19L82.55-19 84.95-19Q85.2-19 85.27-18.73 85.35-18.45 85.22-18.18 85.1-17.9 84.85-17.9L84.85-17.9 81.95-17.9Q79.2-13.25 75.3-9.65L75.3-9.65 74.15-4.55Q74-3.9 74-3.28 74-2.65 74.35-2 74.7-1.35 75.45-1.35L75.45-1.35Q76.3-1.35 77.35-1.95L77.35-1.95Q79.75-3.75 82.65-9.5L82.65-9.5Q82.85-9.95 83.12-10.05 83.4-10.15 83.45-9.93 83.5-9.7 83.3-9.2L83.3-9.2Q81.65-5.75 80.7-4.3L80.7-4.3Q78 0.05 74.95 0.05L74.95 0.05Q73.4 0.05 72.4-1.1 71.4-2.25 71.4-4ZM78.95-19L81.45-19Q84.75-24.9 84.75-27.2L84.75-27.2Q84.75-28.2 84.4-28.2L84.4-28.2Q83.85-28.2 82.72-26.6 81.6-25 78.95-19L78.95-19ZM80.8-17.9L80.8-17.9 78.45-17.9Q77.85-16.5 75.75-11.25L75.75-11.25Q78.45-14.05 80.8-17.9ZM89.34-20.05L89.34-20.05Q89.34-17.8 86.49-15.8L86.49-15.8Q87.49-15.75 89.17-15.75 90.84-15.75 93.39-16L93.39-16Q93.49-15.85 93.49-15.2 93.49-14.55 92.89-13.28 92.29-12 91.82-11.08 91.34-10.15 90.92-9.33 90.49-8.5 89.97-7.3 89.44-6.1 89.09-5.1L89.09-5.1Q87.84-1.3 89.49-1.3L89.49-1.3Q91.59-1.3 95.69-9.65L95.69-9.65Q96.04-10.3 96.27-10.15 96.49-10 96.49-9.78 96.49-9.55 95.84-8.22 95.19-6.9 94.44-5.5 93.69-4.1 92.09-2.25L92.09-2.25Q90.19 0.05 88.44 0.05L88.44 0.05Q86.49 0.05 85.74-2.3L85.74-2.3Q85.59-2.75 85.59-3.65 85.59-4.55 86.17-6.05 86.74-7.55 87.99-9.7 89.24-11.85 89.39-12.23 89.54-12.6 89.54-12.95L89.54-12.95Q89.54-14.5 85.54-14.6L85.54-14.6 84.94-13Q81.79-4.75 78.89-1.95L78.89-1.95Q78.39-1.5 78.39-2.25L78.39-2.25Q78.39-2.4 78.49-2.6L78.49-2.6Q81.29-6.3 83.34-11.35 85.39-16.4 86.19-20.95L86.19-20.95Q86.49-22.5 87.59-22.5 88.69-22.5 89.19-21.1L89.19-21.1Q89.34-20.65 89.34-20.05ZM102.49-19.45Q101.79-18.85 100.94-18.85 100.09-18.85 99.59-19.45 99.09-20.05 99.19-20.9L99.19-20.9Q99.34-21.75 100.04-22.35 100.74-22.95 101.59-22.95 102.44-22.95 102.97-22.35 103.49-21.75 103.34-20.9 103.19-20.05 102.49-19.45ZM97.59-1.1L97.59-1.1Q98.54-1.1 99.59-2.05L99.59-2.05Q101.44-3.9 104.29-9.6L104.29-9.6Q104.64-10.35 104.99-10.05L104.99-10.05Q105.09-9.95 105.09-9.73 105.09-9.5 104.69-8.63 104.29-7.75 103.97-7.05 103.64-6.35 102.72-4.78 101.79-3.2 101.04-2.35L101.04-2.35Q98.99 0 97.17 0 95.34 0 94.54-1.1 93.74-2.2 93.74-3.55 93.74-4.9 94.39-6.5L94.39-6.5 97.59-14.65Q97.69-14.95 97.69-15.45 97.69-15.95 97.09-16.75L97.09-16.75 99.84-16.8Q100.99-16.8 101.19-16.38 101.39-15.95 100.89-15.05L100.89-15.05 96.89-5.7Q96.04-3.85 96.04-2.55L96.04-2.55Q96.04-1.1 97.59-1.1ZM151.64-30.5L151.64-30.5Q141.54-35.5 135.39-35.5 129.24-35.5 125.09-32L125.09-32Q121.14-28.65 121.14-24.8L121.14-24.8Q121.14-22.8 122.59-21.9L122.59-21.9Q124.54-20.8 126.29-20.8L126.29-20.8Q126.94-20.8 127.59-20.95L127.59-20.95Q129.89-21.5 131.49-22.8 133.09-24.1 133.09-24.9 133.09-25.7 133.56-26 134.04-26.3 134.04-25.8L134.04-25.8Q134.04-25.5 133.89-25.1L133.89-25.1Q132.84-21.55 128.99-20.25L128.99-20.25Q127.34-19.7 125.59-19.7 123.84-19.7 122.14-20.75L122.14-20.75Q118.94-22.55 118.94-26.25L118.94-26.25Q118.94-30.7 123.04-34.35 127.14-38 133.04-38L133.04-38Q135.94-38 138.89-37.15L138.89-37.15Q146.29-35.15 152.29-31.35L152.29-31.35Q153.84-33.05 155.49-33.05L155.49-33.05Q157.34-33.05 157.39-31.8L157.39-31.8Q157.44-31.25 157.04-31.3L157.04-31.3Q156.79-31.35 156.49-31.7L156.49-31.7Q156.09-31.85 155.74-31.85L155.74-31.85Q154.64-31.85 153.49-30.75L153.49-30.75Q157.19-28.9 162.19-27.6L162.19-27.6Q164.14-27.15 165.29-27.15 166.44-27.15 167.04-27.2L167.04-27.2Q169.24-27.45 169.89-28.85L169.89-28.85Q170.24-29.6 170.51-29.78 170.79-29.95 170.84-29.6L170.84-29.6Q170.84-29.45 170.84-29.2L170.84-29.2Q170.84-27.15 168.74-26.1L168.74-26.1Q167.44-25.45 166.29-25.45 165.14-25.45 163.79-25.68 162.44-25.9 160.29-26.6 158.14-27.3 156.79-27.9 155.44-28.5 154.14-29.15L154.14-29.15 152.74-29.85Q150.14-26.9 147.19-19.7L147.19-19.7Q146.24-17.3 146.09-16.95L146.09-16.95Q148.99-16.55 151.44-16.55 153.89-16.55 155.31-16.63 156.74-16.7 156.79-16.3L156.79-16.3Q156.84-15.2 149.34-15.2L149.34-15.2Q146.94-15.2 145.49-15.4L145.49-15.4Q142.39-6.9 139.29-2.8L139.29-2.8Q137.99-1.1 136.04 0.78 134.09 2.65 131.89 3.8L131.89 3.8Q126.94 6.5 120.84 6.5 114.74 6.5 110.49 3.8L110.49 3.8Q104.04-0.2 104.04-7.75L104.04-7.75Q104.04-10.3 104.89-13.2L104.89-13.2Q105.49-15.1 107.11-16.55 108.74-18 109.84-18.32 110.94-18.65 110.86-18.45 110.79-18.25 109.14-17.1L109.14-17.1Q105.89-14.75 105.29-11.3L105.29-11.3Q105.04-10.05 105.04-8.4 105.04-6.75 105.79-4.8L105.79-4.8Q107.84 0.5 114.29 3L114.29 3Q117.34 4.15 120.84 4.15 124.34 4.15 127.79 2.75 131.24 1.35 134.19-1.45L134.19-1.45Q139.94-6.9 143.69-15.55L143.69-15.55 140.49-15.6Q134.64-15.6 132.79-12.9L132.79-12.9Q132.34-12.35 132.06-12.63 131.79-12.9 131.99-13.35L131.99-13.35Q133.09-15.75 135.09-16.8 137.09-17.85 139.06-17.85 141.04-17.85 144.39-17.4L144.39-17.4Q145.94-21.2 148.31-25.3 150.69-29.4 151.64-30.5ZM167.34-19.45Q166.64-18.85 165.79-18.85 164.94-18.85 164.44-19.45 163.94-20.05 164.04-20.9L164.04-20.9Q164.19-21.75 164.89-22.35 165.59-22.95 166.44-22.95 167.29-22.95 167.81-22.35 168.34-21.75 168.19-20.9 168.04-20.05 167.34-19.45ZM162.44-1.1L162.44-1.1Q163.39-1.1 164.44-2.05L164.44-2.05Q166.29-3.9 169.14-9.6L169.14-9.6Q169.49-10.35 169.84-10.05L169.84-10.05Q169.94-9.95 169.94-9.73 169.94-9.5 169.54-8.63 169.14-7.75 168.81-7.05 168.49-6.35 167.56-4.78 166.64-3.2 165.89-2.35L165.89-2.35Q163.84 0 162.01 0 160.19 0 159.39-1.1 158.59-2.2 158.59-3.55 158.59-4.9 159.24-6.5L159.24-6.5 162.44-14.65Q162.54-14.95 162.54-15.45 162.54-15.95 161.94-16.75L161.94-16.75 164.69-16.8Q165.84-16.8 166.04-16.38 166.24-15.95 165.74-15.05L165.74-15.05 161.74-5.7Q160.89-3.85 160.89-2.55L160.89-2.55Q160.89-1.1 162.44-1.1ZM167.93-4L167.93-4Q167.93-8.15 171.93-17.9L171.93-17.9 169.33-17.9Q169.08-17.9 169.01-18.18 168.93-18.45 169.06-18.73 169.18-19 169.43-19L169.43-19 172.43-19Q174.23-22.95 175.78-25.6 177.33-28.25 178.63-29.18 179.93-30.1 180.51-30.1 181.08-30.1 181.33-30L181.33-30Q182.48-29.45 182.48-27.73 182.48-26 181.33-23.55 180.18-21.1 179.08-19L179.08-19 181.48-19Q181.73-19 181.81-18.73 181.88-18.45 181.76-18.18 181.63-17.9 181.38-17.9L181.38-17.9 178.48-17.9Q175.73-13.25 171.83-9.65L171.83-9.65 170.68-4.55Q170.53-3.9 170.53-3.28 170.53-2.65 170.88-2 171.23-1.35 171.98-1.35L171.98-1.35Q172.83-1.35 173.88-1.95L173.88-1.95Q176.28-3.75 179.18-9.5L179.18-9.5Q179.38-9.95 179.66-10.05 179.93-10.15 179.98-9.93 180.03-9.7 179.83-9.2L179.83-9.2Q178.18-5.75 177.23-4.3L177.23-4.3Q174.53 0.05 171.48 0.05L171.48 0.05Q169.93 0.05 168.93-1.1 167.93-2.25 167.93-4ZM175.48-19L177.98-19Q181.28-24.9 181.28-27.2L181.28-27.2Q181.28-28.2 180.93-28.2L180.93-28.2Q180.38-28.2 179.26-26.6 178.13-25 175.48-19L175.48-19ZM177.33-17.9L177.33-17.9 174.98-17.9Q174.38-16.5 172.28-11.25L172.28-11.25Q174.98-14.05 177.33-17.9Z" opacity="1" transform="matrix(1,0,0,1,0,0)" fill="#6a6363" class="wordmark-text-0" data-fill-palette-color="quaternary" id="text-0"></path></svg></g></svg></g><g transform="matrix(1,0,0,1,144.3648,142.27165958384734)"><svg viewBox="0 0 106.7904 9.939892662639865" height="9.939892662639865" width="106.7904"><g transform="matrix(1,0,0,1,0,0)"><svg width="106.7904" viewBox="4.4 -37 504.90000000000003 47" height="9.939892662639865" data-palette-color="#6a6363"><path d="M30.3-35L30.3-35Q31.15-35 31.65-34.48 32.15-33.95 32.15-33.15L32.15-33.15 32.15-2.1Q32.15-1.15 31.55-0.58 30.95 0 30.1 0L30.1 0Q29.65 0 29.2-0.18 28.75-0.35 28.5-0.65L28.5-0.65 7.1-28.95 8.1-29.55 8.1-1.85Q8.1-1.05 7.58-0.53 7.05 0 6.2 0L6.2 0Q5.4 0 4.9-0.53 4.4-1.05 4.4-1.85L4.4-1.85 4.4-33Q4.4-33.9 4.98-34.45 5.55-35 6.35-35L6.35-35Q6.8-35 7.28-34.83 7.75-34.65 8-34.3L8-34.3 29.1-6.4 28.45-5.6 28.45-33.15Q28.45-33.95 28.98-34.48 29.5-35 30.3-35ZM64.5-13L64.5-13Q64.5-9.1 62.8-6.05 61.1-3 58.17-1.25 55.25 0.5 51.55 0.5L51.55 0.5Q47.9 0.5 44.97-1.25 42.05-3 40.32-6.05 38.6-9.1 38.6-13L38.6-13Q38.6-16.9 40.32-19.95 42.05-23 44.97-24.75 47.9-26.5 51.55-26.5L51.55-26.5Q55.25-26.5 58.17-24.75 61.1-23 62.8-19.95 64.5-16.9 64.5-13ZM60.5-13L60.5-13Q60.5-15.9 59.32-18.1 58.15-20.3 56.12-21.55 54.1-22.8 51.55-22.8L51.55-22.8Q49.05-22.8 47-21.55 44.95-20.3 43.77-18.1 42.6-15.9 42.6-13L42.6-13Q42.6-10.15 43.77-7.95 44.95-5.75 47-4.48 49.05-3.2 51.55-3.2L51.55-3.2Q54.1-3.2 56.12-4.48 58.15-5.75 59.32-7.95 60.5-10.15 60.5-13ZM89.64-25.85L89.64-25.85Q90.55-25.85 91.09-25.28 91.64-24.7 91.64-23.85L91.64-23.85 91.64-10.2Q91.64-5.15 88.82-2.38 86 0.4 80.94 0.4L80.94 0.4Q75.94 0.4 73.12-2.38 70.3-5.15 70.3-10.2L70.3-10.2 70.3-23.85Q70.3-24.7 70.87-25.28 71.44-25.85 72.3-25.85L72.3-25.85Q73.19-25.85 73.75-25.28 74.3-24.7 74.3-23.85L74.3-23.85 74.3-10.2Q74.3-6.8 76.05-5.05 77.8-3.3 80.94-3.3L80.94-3.3Q84.19-3.3 85.92-5.05 87.64-6.8 87.64-10.2L87.64-10.2 87.64-23.85Q87.64-24.7 88.22-25.28 88.8-25.85 89.64-25.85ZM101.04 0L101.04 0Q100.19 0 99.62-0.6 99.04-1.2 99.04-2.05L99.04-2.05 99.04-23.85Q99.04-24.7 99.62-25.28 100.19-25.85 101.04-25.85L101.04-25.85Q101.94-25.85 102.49-25.28 103.04-24.7 103.04-23.85L103.04-23.85 103.04-17.25 102.44-18.3Q102.74-19.85 103.52-21.33 104.29-22.8 105.49-23.98 106.69-25.15 108.24-25.83 109.79-26.5 111.64-26.5L111.64-26.5Q112.74-26.5 113.67-25.98 114.59-25.45 114.59-24.5L114.59-24.5Q114.59-23.45 114.04-22.95 113.49-22.45 112.79-22.45L112.79-22.45Q112.14-22.45 111.54-22.73 110.94-23 110.04-23L110.04-23Q108.79-23 107.57-22.33 106.34-21.65 105.32-20.4 104.29-19.15 103.67-17.57 103.04-16 103.04-14.2L103.04-14.2 103.04-2.05Q103.04-1.2 102.47-0.6 101.89 0 101.04 0ZM122.94-24.25L122.94-2.05Q122.94-1.2 122.36-0.6 121.79 0 120.94 0L120.94 0Q120.04 0 119.49-0.6 118.94-1.2 118.94-2.05L118.94-2.05 118.94-24.25Q118.94-25.1 119.52-25.68 120.09-26.25 120.94-26.25L120.94-26.25Q121.79-26.25 122.36-25.68 122.94-25.1 122.94-24.25L122.94-24.25ZM120.94-29.6L120.94-29.6Q119.69-29.6 119.09-30.1 118.49-30.6 118.49-31.65L118.49-31.65 118.49-32.35Q118.49-33.4 119.14-33.9 119.79-34.4 120.99-34.4L120.99-34.4Q122.19-34.4 122.79-33.9 123.39-33.4 123.39-32.35L123.39-32.35 123.39-31.65Q123.39-30.6 122.77-30.1 122.14-29.6 120.94-29.6ZM128.69-4.1L128.69-4.1Q128.24-4.75 128.29-5.48 128.34-6.2 129.14-6.75L129.14-6.75Q129.64-7.1 130.31-7.05 130.99-7 131.54-6.4L131.54-6.4Q132.94-4.75 134.74-3.78 136.54-2.8 139.14-2.8L139.14-2.8Q140.34-2.85 141.54-3.2 142.74-3.55 143.56-4.42 144.39-5.3 144.39-6.75L144.39-6.75Q144.39-8.15 143.54-8.97 142.69-9.8 141.34-10.33 139.99-10.85 138.39-11.25L138.39-11.25Q136.74-11.7 135.14-12.28 133.54-12.85 132.26-13.73 130.99-14.6 130.21-15.93 129.44-17.25 129.44-19.15L129.44-19.15Q129.44-21.4 130.66-23.05 131.89-24.7 133.96-25.6 136.04-26.5 138.49-26.5L138.49-26.5Q139.89-26.5 141.41-26.18 142.94-25.85 144.39-25.08 145.84-24.3 146.94-22.95L146.94-22.95Q147.39-22.45 147.44-21.7 147.49-20.95 146.79-20.35L146.79-20.35Q146.24-19.95 145.56-20 144.89-20.05 144.44-20.5L144.44-20.5Q143.39-21.75 141.81-22.43 140.24-23.1 138.34-23.1L138.34-23.1Q137.14-23.1 135.99-22.75 134.84-22.4 134.06-21.58 133.29-20.75 133.29-19.3L133.29-19.3Q133.34-17.95 134.19-17.1 135.04-16.25 136.49-15.73 137.94-15.2 139.69-14.7L139.69-14.7Q141.29-14.3 142.76-13.78 144.24-13.25 145.44-12.4 146.64-11.55 147.34-10.23 148.04-8.9 148.04-6.9L148.04-6.9Q148.04-4.6 146.74-2.93 145.44-1.25 143.31-0.38 141.19 0.5 138.74 0.5L138.74 0.5Q135.99 0.5 133.31-0.55 130.64-1.6 128.69-4.1ZM166.33-26.25L166.33-26.25Q169.63-26.25 171.56-24.83 173.48-23.4 174.31-21.03 175.13-18.65 175.13-15.75L175.13-15.75 175.13-2.05Q175.13-1.2 174.56-0.6 173.98 0 173.13 0L173.13 0Q172.28 0 171.71-0.6 171.13-1.2 171.13-2.05L171.13-2.05 171.13-15.75Q171.13-17.65 170.58-19.18 170.03-20.7 168.76-21.63 167.48-22.55 165.28-22.55L165.28-22.55Q163.23-22.55 161.53-21.63 159.83-20.7 158.83-19.18 157.83-17.65 157.83-15.75L157.83-15.75 157.83-2.05Q157.83-1.2 157.26-0.6 156.69 0 155.83 0L155.83 0Q154.98 0 154.41-0.6 153.83-1.2 153.83-2.05L153.83-2.05 153.83-35Q153.83-35.85 154.41-36.43 154.98-37 155.83-37L155.83-37Q156.73-37 157.28-36.43 157.83-35.85 157.83-35L157.83-35 157.83-20.05 156.83-18.95Q157.08-20.25 157.94-21.58 158.78-22.9 160.08-23.95 161.38-25 162.98-25.63 164.58-26.25 166.33-26.25ZM218.28-35.2L218.28-35.2Q219.13-35.2 219.7-34.58 220.28-33.95 220.28-33.15L220.28-33.15Q220.28-32.85 220.2-32.52 220.13-32.2 219.93-31.9L219.93-31.9 208.33-15.75 208.98-18.2 208.98-2.05Q208.98-1.2 208.4-0.6 207.83 0 207.03 0L207.03 0Q206.13 0 205.55-0.6 204.98-1.2 204.98-2.05L204.98-2.05 204.98-17.8 205.33-16.5 194.08-31.7Q193.78-32.1 193.65-32.48 193.53-32.85 193.53-33.2L193.53-33.2Q193.53-34.05 194.23-34.63 194.93-35.2 195.63-35.2L195.63-35.2Q196.63-35.2 197.28-34.25L197.28-34.25 207.63-20.05 206.68-20.2 216.63-34.2Q217.28-35.2 218.28-35.2ZM247.13-13L247.13-13Q247.13-9.1 245.43-6.05 243.73-3 240.8-1.25 237.88 0.5 234.18 0.5L234.18 0.5Q230.53 0.5 227.6-1.25 224.68-3 222.95-6.05 221.23-9.1 221.23-13L221.23-13Q221.23-16.9 222.95-19.95 224.68-23 227.6-24.75 230.53-26.5 234.18-26.5L234.18-26.5Q237.88-26.5 240.8-24.75 243.73-23 245.43-19.95 247.13-16.9 247.13-13ZM243.13-13L243.13-13Q243.13-15.9 241.95-18.1 240.78-20.3 238.75-21.55 236.73-22.8 234.18-22.8L234.18-22.8Q231.68-22.8 229.63-21.55 227.58-20.3 226.4-18.1 225.23-15.9 225.23-13L225.23-13Q225.23-10.15 226.4-7.95 227.58-5.75 229.63-4.48 231.68-3.2 234.18-3.2L234.18-3.2Q236.73-3.2 238.75-4.48 240.78-5.75 241.95-7.95 243.13-10.15 243.13-13ZM272.27-25.85L272.27-25.85Q273.17-25.85 273.72-25.28 274.27-24.7 274.27-23.85L274.27-23.85 274.27-10.2Q274.27-5.15 271.45-2.38 268.62 0.4 263.57 0.4L263.57 0.4Q258.57 0.4 255.75-2.38 252.92-5.15 252.92-10.2L252.92-10.2 252.92-23.85Q252.92-24.7 253.5-25.28 254.07-25.85 254.92-25.85L254.92-25.85Q255.82-25.85 256.37-25.28 256.92-24.7 256.92-23.85L256.92-23.85 256.92-10.2Q256.92-6.8 258.67-5.05 260.42-3.3 263.57-3.3L263.57-3.3Q266.82-3.3 268.55-5.05 270.27-6.8 270.27-10.2L270.27-10.2 270.27-23.85Q270.27-24.7 270.85-25.28 271.42-25.85 272.27-25.85ZM283.67 0L283.67 0Q282.82 0 282.25-0.6 281.67-1.2 281.67-2.05L281.67-2.05 281.67-23.85Q281.67-24.7 282.25-25.28 282.82-25.85 283.67-25.85L283.67-25.85Q284.57-25.85 285.12-25.28 285.67-24.7 285.67-23.85L285.67-23.85 285.67-17.25 285.07-18.3Q285.37-19.85 286.15-21.33 286.92-22.8 288.12-23.98 289.32-25.15 290.87-25.83 292.42-26.5 294.27-26.5L294.27-26.5Q295.37-26.5 296.3-25.98 297.22-25.45 297.22-24.5L297.22-24.5Q297.22-23.45 296.67-22.95 296.12-22.45 295.42-22.45L295.42-22.45Q294.77-22.45 294.17-22.73 293.57-23 292.67-23L292.67-23Q291.42-23 290.2-22.33 288.97-21.65 287.95-20.4 286.92-19.15 286.3-17.57 285.67-16 285.67-14.2L285.67-14.2 285.67-2.05Q285.67-1.2 285.1-0.6 284.52 0 283.67 0ZM326.37 0.5L326.37 0.5Q322.67 0.5 319.87-0.6 317.07-1.7 314.47-4.1L314.47-4.1Q314.12-4.45 313.89-4.88 313.67-5.3 313.67-5.8L313.67-5.8Q313.67-6.6 314.24-7.23 314.82-7.85 315.67-7.85L315.67-7.85Q316.37-7.85 316.92-7.3L316.92-7.3Q318.87-5.4 321.14-4.4 323.42-3.4 326.27-3.4L326.27-3.4Q328.47-3.4 330.24-4.1 332.02-4.8 333.07-6.05 334.12-7.3 334.12-8.95L334.12-8.95Q334.07-10.95 332.94-12.25 331.82-13.55 329.84-14.43 327.87-15.3 325.27-15.9L325.27-15.9Q322.97-16.45 321.04-17.25 319.12-18.05 317.72-19.23 316.32-20.4 315.54-22.08 314.77-23.75 314.77-26L314.77-26Q314.77-28.85 316.27-31 317.77-33.15 320.42-34.33 323.07-35.5 326.52-35.5L326.52-35.5Q329.57-35.5 332.29-34.5 335.02-33.5 336.67-31.75L336.67-31.75Q337.67-30.8 337.67-29.9L337.67-29.9Q337.67-29.15 337.04-28.53 336.42-27.9 335.62-27.9L335.62-27.9Q335.07-27.9 334.62-28.3L334.62-28.3Q333.77-29.25 332.47-30 331.17-30.75 329.62-31.2 328.07-31.65 326.52-31.65L326.52-31.65Q324.22-31.65 322.47-30.98 320.72-30.3 319.74-29.08 318.77-27.85 318.77-26.15L318.77-26.15Q318.77-24.25 319.87-23.03 320.97-21.8 322.82-21.03 324.67-20.25 326.92-19.65L326.92-19.65Q329.37-19.05 331.44-18.28 333.52-17.5 335.02-16.35 336.52-15.2 337.34-13.43 338.17-11.65 338.17-9.05L338.17-9.05Q338.17-6.3 336.62-4.15 335.07-2 332.39-0.78 329.72 0.45 326.37 0.5ZM343.16-25.7L343.16-25.7 354.91-25.7Q355.71-25.7 356.24-25.15 356.76-24.6 356.76-23.85L356.76-23.85Q356.76-23.05 356.24-22.53 355.71-22 354.91-22L354.91-22 343.16-22Q342.41-22 341.86-22.55 341.31-23.1 341.31-23.9L341.31-23.9Q341.31-24.65 341.86-25.18 342.41-25.7 343.16-25.7ZM348.41-32.5L348.41-32.5Q349.26-32.5 349.81-31.93 350.36-31.35 350.36-30.5L350.36-30.5 350.36-6.35Q350.36-5.15 350.71-4.55 351.06-3.95 351.64-3.73 352.21-3.5 352.76-3.5L352.76-3.5Q353.26-3.5 353.64-3.68 354.01-3.85 354.51-3.85L354.51-3.85Q355.01-3.85 355.44-3.38 355.86-2.9 355.86-2.15L355.86-2.15Q355.86-1.25 354.81-0.63 353.76 0 352.46 0L352.46 0Q351.76 0 350.74-0.1 349.71-0.2 348.71-0.75 347.71-1.3 347.04-2.58 346.36-3.85 346.36-6.15L346.36-6.15 346.36-30.5Q346.36-31.35 346.96-31.93 347.56-32.5 348.41-32.5ZM364.31 0L364.31 0Q363.46 0 362.89-0.6 362.31-1.2 362.31-2.05L362.31-2.05 362.31-23.85Q362.31-24.7 362.89-25.28 363.46-25.85 364.31-25.85L364.31-25.85Q365.21-25.85 365.76-25.28 366.31-24.7 366.31-23.85L366.31-23.85 366.31-17.25 365.71-18.3Q366.01-19.85 366.79-21.33 367.56-22.8 368.76-23.98 369.96-25.15 371.51-25.83 373.06-26.5 374.91-26.5L374.91-26.5Q376.01-26.5 376.94-25.98 377.86-25.45 377.86-24.5L377.86-24.5Q377.86-23.45 377.31-22.95 376.76-22.45 376.06-22.45L376.06-22.45Q375.41-22.45 374.81-22.73 374.21-23 373.31-23L373.31-23Q372.06-23 370.84-22.33 369.61-21.65 368.59-20.4 367.56-19.15 366.94-17.57 366.31-16 366.31-14.2L366.31-14.2 366.31-2.05Q366.31-1.2 365.74-0.6 365.16 0 364.31 0ZM392.96 0.5L392.96 0.5Q388.96 0.5 385.96-1.2 382.96-2.9 381.31-5.88 379.66-8.85 379.66-12.75L379.66-12.75Q379.66-17.1 381.38-20.18 383.11-23.25 385.86-24.88 388.61-26.5 391.71-26.5L391.71-26.5Q394.06-26.5 396.18-25.65 398.31-24.8 399.98-23.18 401.66-21.55 402.66-19.28 403.66-17 403.71-14.2L403.71-14.2Q403.66-13.4 403.06-12.85 402.46-12.3 401.66-12.3L401.66-12.3 381.91-12.3 381.01-15.75 400.26-15.75 399.46-15.05 399.46-16.15Q399.31-18.2 398.13-19.68 396.96-21.15 395.26-21.95 393.56-22.75 391.71-22.75L391.71-22.75Q390.21-22.75 388.73-22.23 387.26-21.7 386.08-20.53 384.91-19.35 384.21-17.5 383.51-15.65 383.51-13.05L383.51-13.05Q383.51-10.15 384.68-7.95 385.86-5.75 387.96-4.48 390.06-3.2 392.81-3.2L392.81-3.2Q394.61-3.2 395.91-3.65 397.21-4.1 398.13-4.78 399.06-5.45 399.71-6.15L399.71-6.15Q400.36-6.6 401.01-6.6L401.01-6.6Q401.71-6.6 402.21-6.1 402.71-5.6 402.71-4.9L402.71-4.9Q402.71-4.05 401.91-3.4L401.91-3.4Q400.46-1.85 398.08-0.68 395.71 0.5 392.96 0.5ZM422.31-26.5L422.31-26.5Q425.71-26.5 427.66-25.1 429.61-23.7 430.43-21.35 431.26-19 431.26-16.1L431.26-16.1 431.26-2.05Q431.26-1.2 430.68-0.6 430.11 0 429.26 0L429.26 0Q428.41 0 427.83-0.6 427.26-1.2 427.26-2.05L427.26-2.05 427.26-16Q427.26-17.9 426.68-19.43 426.11-20.95 424.78-21.88 423.46-22.8 421.16-22.8L421.16-22.8Q419.06-22.8 417.31-21.88 415.56-20.95 414.51-19.43 413.46-17.9 413.46-16L413.46-16 413.46-2.05Q413.46-1.2 412.88-0.6 412.31 0 411.46 0L411.46 0Q410.61 0 410.03-0.6 409.46-1.2 409.46-2.05L409.46-2.05 409.46-23.85Q409.46-24.7 410.03-25.28 410.61-25.85 411.46-25.85L411.46-25.85Q412.36-25.85 412.91-25.28 413.46-24.7 413.46-23.85L413.46-23.85 413.46-20.3 412.46-19.2Q412.71-20.5 413.61-21.83 414.51-23.15 415.86-24.2 417.21-25.25 418.86-25.88 420.51-26.5 422.31-26.5ZM449.25-26.5L449.25-26.5Q451.45-26.5 453.3-25.78 455.15-25.05 456.53-23.9 457.9-22.75 458.68-21.5 459.45-20.25 459.45-19.15L459.45-19.15 458.45-19.75 458.45-24.1Q458.45-24.95 459.03-25.53 459.6-26.1 460.45-26.1L460.45-26.1Q461.35-26.1 461.9-25.53 462.45-24.95 462.45-24.1L462.45-24.1 462.45-2.2Q462.45 1.9 460.73 4.6 459 7.3 456.1 8.65 453.2 10 449.65 10L449.65 10Q448.15 10 446.33 9.6 444.5 9.2 443.1 8.63 441.7 8.05 441.35 7.45L441.35 7.45Q440.6 6.95 440.43 6.33 440.25 5.7 440.6 5.15L440.6 5.15Q441.1 4.45 441.8 4.45 442.5 4.45 443.6 4.9L443.6 4.9Q444.1 5.05 445.05 5.4 446 5.75 447.25 6.03 448.5 6.3 449.7 6.3L449.7 6.3Q453.95 6.3 456.2 4.08 458.45 1.85 458.45-1.8L458.45-1.8 458.45-6.45 459-6.2Q458.7-4.8 457.8-3.6 456.9-2.4 455.58-1.48 454.25-0.55 452.63-0.03 451 0.5 449.35 0.5L449.35 0.5Q445.85 0.5 443.08-1.25 440.3-3 438.68-6.05 437.05-9.1 437.05-13L437.05-13Q437.05-16.95 438.68-20 440.3-23.05 443.05-24.78 445.8-26.5 449.25-26.5ZM449.8-22.8L449.8-22.8Q447.2-22.8 445.2-21.53 443.2-20.25 442.05-18.05 440.9-15.85 440.9-13L440.9-13Q440.9-10.25 442.05-8.03 443.2-5.8 445.2-4.5 447.2-3.2 449.8-3.2L449.8-3.2Q452.4-3.2 454.4-4.48 456.4-5.75 457.55-7.95 458.7-10.15 458.7-13L458.7-13Q458.7-15.9 457.55-18.1 456.4-20.3 454.4-21.55 452.4-22.8 449.8-22.8ZM468.85-25.7L468.85-25.7 480.6-25.7Q481.4-25.7 481.93-25.15 482.45-24.6 482.45-23.85L482.45-23.85Q482.45-23.05 481.93-22.53 481.4-22 480.6-22L480.6-22 468.85-22Q468.1-22 467.55-22.55 467-23.1 467-23.9L467-23.9Q467-24.65 467.55-25.18 468.1-25.7 468.85-25.7ZM474.1-32.5L474.1-32.5Q474.95-32.5 475.5-31.93 476.05-31.35 476.05-30.5L476.05-30.5 476.05-6.35Q476.05-5.15 476.4-4.55 476.75-3.95 477.33-3.73 477.9-3.5 478.45-3.5L478.45-3.5Q478.95-3.5 479.33-3.68 479.7-3.85 480.2-3.85L480.2-3.85Q480.7-3.85 481.13-3.38 481.55-2.9 481.55-2.15L481.55-2.15Q481.55-1.25 480.5-0.63 479.45 0 478.15 0L478.15 0Q477.45 0 476.43-0.1 475.4-0.2 474.4-0.75 473.4-1.3 472.73-2.58 472.05-3.85 472.05-6.15L472.05-6.15 472.05-30.5Q472.05-31.35 472.65-31.93 473.25-32.5 474.1-32.5ZM500.5-26.25L500.5-26.25Q503.8-26.25 505.72-24.83 507.65-23.4 508.47-21.03 509.3-18.65 509.3-15.75L509.3-15.75 509.3-2.05Q509.3-1.2 508.72-0.6 508.15 0 507.3 0L507.3 0Q506.45 0 505.87-0.6 505.3-1.2 505.3-2.05L505.3-2.05 505.3-15.75Q505.3-17.65 504.75-19.18 504.2-20.7 502.92-21.63 501.65-22.55 499.45-22.55L499.45-22.55Q497.4-22.55 495.7-21.63 494-20.7 493-19.18 492-17.65 492-15.75L492-15.75 492-2.05Q492-1.2 491.42-0.6 490.85 0 490 0L490 0Q489.15 0 488.57-0.6 488-1.2 488-2.05L488-2.05 488-35Q488-35.85 488.57-36.43 489.15-37 490-37L490-37Q490.9-37 491.45-36.43 492-35.85 492-35L492-35 492-20.05 491-18.95Q491.25-20.25 492.1-21.58 492.95-22.9 494.25-23.95 495.55-25 497.15-25.63 498.75-26.25 500.5-26.25Z" opacity="1" transform="matrix(1,0,0,1,0,0)" fill="#6a6363" class="slogan-text-1" data-fill-palette-color="secondary" id="text-1"></path></svg></g></svg></g></svg></g></svg></g><g></g></svg></g><defs></defs></svg><rect width="395.52" height="152.2115522464872" fill="none" stroke="none" visibility="hidden"></rect></g></svg></g></svg>